HIERARCHY
ROOT joint_Root
{
	OFFSET 0.0 0.0 0.0
	CHANNELS 6 Xposition Yposition Zposition Zrotation Xrotation Yrotation 
	JOINT Hips
	{
		OFFSET 4.5925 91.4895 -427.239
		CHANNELS 6 Xposition Yposition Zposition Zrotation Xrotation Yrotation 
		JOINT Spine
		{
			OFFSET 15.7357 0.0 0.0
			CHANNELS 6 Xposition Yposition Zposition Zrotation Xrotation Yrotation 
			JOINT Chest
			{
				OFFSET 8.98455 -0.406207 0.0
				CHANNELS 6 Xposition Yposition Zposition Zrotation Xrotation Yrotation 
				JOINT Neck
				{
					OFFSET 16.3773 0.0 0.0
					CHANNELS 6 Xposition Yposition Zposition Zrotation Xrotation Yrotation 
					JOINT Head
					{
						OFFSET 6.45672 0.0 0.0
						CHANNELS 6 Xposition Yposition Zposition Zrotation Xrotation Yrotation 
						End Site
						{
							OFFSET 0.0 0.0 0.0
						}
					}
				}
				JOINT Shoulder_L
				{
					OFFSET 12.9942 -0.242716 4.98039
					CHANNELS 6 Xposition Yposition Zposition Zrotation Xrotation Yrotation 
					JOINT UpperArm_L
					{
						OFFSET 5.34809 0.0 0.0
						CHANNELS 6 Xposition Yposition Zposition Zrotation Xrotation Yrotation 
						JOINT LowerArm_L
						{
							OFFSET 24.3286 1.87007e-05 0.0
							CHANNELS 6 Xposition Yposition Zposition Zrotation Xrotation Yrotation 
							JOINT Hand_L
							{
								OFFSET 22.2916 0.0 0.0
								CHANNELS 6 Xposition Yposition Zposition Zrotation Xrotation Yrotation 
								End Site
								{
									OFFSET 0.0 0.0 0.0
								}
							}
						}
					}
				}
				JOINT Shoulder_R
				{
					OFFSET 12.9945 -0.242716 -4.98039
					CHANNELS 6 Xposition Yposition Zposition Zrotation Xrotation Yrotation 
					JOINT UpperArm_R
					{
						OFFSET -5.34813 0.0 0.0
						CHANNELS 6 Xposition Yposition Zposition Zrotation Xrotation Yrotation 
						JOINT LowerArm_R
						{
							OFFSET -24.3289 0.000322201 0.0
							CHANNELS 6 Xposition Yposition Zposition Zrotation Xrotation Yrotation 
							JOINT Hand_R
							{
								OFFSET -22.2915 -0.000108084 0.0
								CHANNELS 6 Xposition Yposition Zposition Zrotation Xrotation Yrotation 
								End Site
								{
									OFFSET 0.0 0.0 0.0
								}
							}
						}
					}
				}
			}
		}
		JOINT UpperLeg_L
		{
			OFFSET -2.19248 -6.46944 0.0
			CHANNELS 6 Xposition Yposition Zposition Zrotation Xrotation Yrotation 
			JOINT LowerLeg_L
			{
				OFFSET 39.0811 0.0 -1.23785e-05
				CHANNELS 6 Xposition Yposition Zposition Zrotation Xrotation Yrotation 
				JOINT Foot_L
				{
					OFFSET 40.9854 0.0 -1.26872e-05
					CHANNELS 6 Xposition Yposition Zposition Zrotation Xrotation Yrotation 
					JOINT Toes_L
					{
						OFFSET 11.7543 0.0 0.0
						CHANNELS 6 Xposition Yposition Zposition Zrotation Xrotation Yrotation 
						End Site
						{
							OFFSET 0.0 0.0 0.0
						}
					}
				}
			}
		}
		JOINT UpperLeg_R
		{
			OFFSET -2.19251 6.46944 0.0
			CHANNELS 6 Xposition Yposition Zposition Zrotation Xrotation Yrotation 
			JOINT LowerLeg_R
			{
				OFFSET -39.0811 -0.00228153 -0.0401928
				CHANNELS 6 Xposition Yposition Zposition Zrotation Xrotation Yrotation 
				JOINT Foot_R
				{
					OFFSET -40.9854 0.0 0.0
					CHANNELS 6 Xposition Yposition Zposition Zrotation Xrotation Yrotation 
					JOINT Toes_R
					{
						OFFSET -11.7543 0.0 0.0
						CHANNELS 6 Xposition Yposition Zposition Zrotation Xrotation Yrotation 
						End Site
						{
							OFFSET 0.0 0.0 0.0
						}
					}
				}
			}
		}
	}
}
MOTION
Frames:	4
Frame Time:	0.0333333
0.000000 0.000000 0.000000 0.000000 0.000000 -0.000000 -3.526990 83.379700 -1.788010 85.358100 3.849190 13.722400 15.735700 0.000005 -0.000001 83.321100 80.961700 -82.817200 8.984550 -0.406207 -0.000000 10.202200 -2.078000 1.192590 16.377300 -0.000001 -0.000001 -1.522510 -2.449430 0.243632 6.456720 -0.000001 -0.000000 -1.591540 -0.547616 -1.617850 12.994200 -0.242716 4.980390 -91.713800 5.579130 -72.893000 5.348090 -0.000007 -0.000001 -67.017900 22.930800 -9.657350 24.328600 0.000019 0.000005 9.375830 20.321400 -25.425000 22.291600 -0.000001 0.000005 18.446000 5.149170 3.957780 12.994500 -0.242716 -4.980390 88.357600 7.698140 -77.917500 -5.348130 -0.000001 -0.000004 -61.074900 15.998400 -9.425600 -24.328900 0.000322 -0.000009 -5.873590 -8.855160 -33.747300 -22.291500 -0.000108 -0.000004 15.513600 5.043040 6.398450 -2.192480 -6.469440 -0.000000 -166.719000 -11.027600 -13.034800 39.081100 -0.000007 -0.000012 -0.221360 0.128703 59.826600 40.985400 -0.000006 -0.000013 3.534570 14.024800 -83.594800 11.754300 -0.000000 0.000003 -0.000094 -0.000977 -16.615100 -2.192510 6.469440 -0.000001 -179.703000 19.299200 171.179000 -39.081100 -0.002282 -0.040193 0.081980 -0.051030 57.060900 -40.985400 0.000008 0.000006 9.389100 5.789580 -85.251300 -11.754300 -0.000006 -0.000006 -0.682531 -0.845464 -16.256300
0.000000 0.000000 0.000000 0.000000 0.000000 -0.000000 -3.567910 85.911500 -0.904276 85.215900 5.546840 13.244300 15.735700 0.000005 -0.000001 83.725200 82.125500 -83.958300 8.984550 -0.406207 -0.000000 7.887810 -1.714350 -0.347524 16.377300 -0.000001 -0.000001 0.798134 -2.929030 0.481838 6.456720 -0.000001 -0.000000 0.105225 -1.596240 -0.629975 12.994200 -0.242716 4.980390 -91.623100 5.022320 -72.063200 5.348090 -0.000007 -0.000001 -68.940500 21.751000 -7.559240 24.328600 0.000019 0.000005 7.187310 18.268900 -21.912500 22.291600 -0.000001 0.000005 16.364600 5.094640 5.232060 12.994500 -0.242716 -4.980390 88.478000 6.550120 -76.886200 -5.348130 -0.000001 -0.000004 -58.853800 12.199100 -11.617600 -24.328900 0.000322 -0.000009 -8.086710 -10.922300 -36.858100 -22.291500 -0.000108 -0.000004 14.440800 5.035210 6.561140 -2.192480 -6.469440 -0.000000 -167.153000 -9.461260 -9.485410 39.081100 -0.000007 -0.000012 -0.186231 0.145364 52.026800 40.985400 -0.000006 -0.000013 2.620830 14.116800 -80.107500 11.754300 -0.000000 0.000003 -0.000079 -0.000839 -16.609900 -2.192510 6.469440 -0.000001 -179.623000 19.917100 175.403000 -39.081100 -0.002282 -0.040193 0.063781 -0.053026 48.780200 -40.985400 0.000008 0.000006 8.631190 5.665260 -81.367300 -11.754300 -0.000006 -0.000006 -0.637809 -0.786106 -16.644600
0.000000 0.000000 0.000000 0.000000 0.000000 -0.000000 -3.142990 88.594900 -0.341925 86.040300 6.073120 11.188400 15.735700 0.000005 -0.000001 84.040200 83.827700 -85.266200 8.984550 -0.406207 -0.000000 4.500490 -1.244620 -2.400510 16.377300 -0.000001 -0.000001 3.596190 -2.816500 0.677590 6.456720 -0.000001 -0.000000 1.592210 -1.967000 0.073044 12.994200 -0.242716 4.980390 -91.425900 4.079480 -70.712600 5.348090 -0.000007 -0.000001 -70.380900 20.593500 -3.960650 24.328600 0.000019 0.000005 7.698330 20.087600 -21.482500 22.291600 -0.000001 0.000005 11.612600 5.143720 4.063890 12.994500 -0.242716 -4.980390 88.819700 4.702050 -75.889100 -5.348130 -0.000001 -0.000004 -53.375900 6.350900 -18.199000 -24.328900 0.000322 -0.000009 -8.397370 -9.348210 -42.265900 -22.291500 -0.000108 -0.000004 15.420100 5.078280 5.618080 -2.192480 -6.469440 -0.000000 -169.095000 -8.741940 -6.267020 39.081100 -0.000007 -0.000012 -0.151893 0.167588 42.188200 40.985400 -0.000006 -0.000013 1.526720 13.197700 -75.453900 11.754300 -0.000000 0.000003 -0.000059 -0.000655 -16.602900 -2.192510 6.469440 -0.000001 179.724000 20.045300 178.345000 -39.081100 -0.002282 -0.040193 0.041257 -0.046406 39.295000 -40.985400 0.000008 0.000006 7.748240 6.722750 -76.117100 -11.754300 -0.000006 -0.000006 -0.679277 -0.833065 -17.335500
0.000000 0.000000 0.000000 0.000000 0.000000 -0.000000 -2.378160 90.558900 -0.103828 87.074800 5.681750 8.914430 15.735700 0.000005 -0.000001 85.282900 85.416200 -87.295500 8.984550 -0.406207 -0.000000 1.362560 -0.641147 -4.014000 16.377300 -0.000001 -0.000001 5.510050 -2.344450 0.460567 6.456720 -0.000001 -0.000000 2.768380 -1.962250 0.241526 12.994200 -0.242716 4.980390 -91.156100 3.069020 -69.345100 5.348090 -0.000007 -0.000001 -71.369700 18.846600 0.305222 24.328600 0.000019 0.000005 9.713220 23.140600 -23.535400 22.291600 -0.000001 0.000005 6.811720 5.202230 2.647890 12.994500 -0.242716 -4.980390 89.333400 2.572560 -75.470100 -5.348130 -0.000001 -0.000004 -45.863800 -3.194520 -28.585500 -24.328900 0.000322 -0.000009 -8.796380 -7.997640 -48.037800 -22.291500 -0.000108 -0.000004 19.249800 5.199500 2.791060 -2.192480 -6.469440 -0.000000 -171.184000 -9.237580 -3.629790 39.081100 -0.000007 -0.000012 -0.115525 0.176353 33.228200 40.985400 -0.000006 -0.000013 0.999421 12.468200 -71.196100 11.754300 -0.000000 0.000003 -0.000046 -0.000524 -16.597900 -2.192510 6.469440 -0.000001 178.297000 21.501300 -179.881000 -39.081100 -0.002282 -0.040193 0.025135 -0.035620 31.509100 -40.985400 0.000008 0.000006 7.166530 9.709810 -71.266700 -11.754300 -0.000006 -0.000006 -0.700557 -0.851586 -18.329600
